<?xml version="1.0" encoding="UTF-8" standalone="no"?><!DOCTYPE svg PUBLIC "-//W3C//DTD SVG 1.1//EN" "http://www.w3.org/Graphics/SVG/1.1/DTD/svg11.dtd"><svg width="100%" height="100%" viewBox="0 0 18 18" version="1.1" xmlns="http://www.w3.org/2000/svg" xmlns:xlink="http://www.w3.org/1999/xlink" xml:space="preserve" xmlns:serif="http://www.serif.com/" style="fill-rule:evenodd;clip-rule:evenodd;stroke-linejoin:round;stroke-miterlimit:2;"><g><circle cx="8.9" cy="8.9" r="7.65" style="fill:#fafcdc;"/><path d="M8.9,0c-4.912,0 -8.9,3.988 -8.9,8.9c-0,4.911 3.988,8.899 8.9,8.899c4.911,0 8.899,-3.988 8.899,-8.899c0,-4.912 -3.988,-8.9 -8.899,-8.9Zm-0,1.25c4.221,0 7.649,3.428 7.649,7.65c0,4.221 -3.428,7.649 -7.649,7.649c-4.222,0 -7.65,-3.428 -7.65,-7.649c0,-4.222 3.428,-7.65 7.65,-7.65Z" style="fill:#ffd747;"/><g><path d="M7.047,4.32l-1.185,5.388l2.807,-0.307l-0.929,4.484l4.249,-6.601l-3.159,0.346l1.726,-3.695l-3.509,0.385Z" style="fill:#ffdc64;fill-rule:nonzero;"/><path d="M7.047,4.32l-1.185,5.388l1.053,-0.115l1.185,-5.389l-1.053,0.116Zm1.622,5.081l-0.929,4.484l0.91,-1.415l1.072,-3.185l-1.053,0.116Z" style="fill:#ffb446;fill-rule:nonzero;"/></g></g></svg>