<?xml version="1.0" encoding="UTF-8" standalone="no"?><!DOCTYPE svg PUBLIC "-//W3C//DTD SVG 1.1//EN" "http://www.w3.org/Graphics/SVG/1.1/DTD/svg11.dtd"><svg width="100%" height="100%" viewBox="0 0 18 18" version="1.1" xmlns="http://www.w3.org/2000/svg" xmlns:xlink="http://www.w3.org/1999/xlink" xml:space="preserve" xmlns:serif="http://www.serif.com/" style="fill-rule:evenodd;clip-rule:evenodd;stroke-linejoin:round;stroke-miterlimit:2;"><g><circle cx="8.9" cy="8.9" r="7.65" style="fill:#fafcdc;"/><path d="M8.9,0c-4.912,0 -8.9,3.988 -8.9,8.9c0,4.911 3.988,8.899 8.9,8.899c4.911,0 8.899,-3.988 8.899,-8.899c0,-4.912 -3.988,-8.9 -8.899,-8.9Zm-0,1.25c4.221,0 7.649,3.428 7.649,7.65c0,4.221 -3.428,7.649 -7.649,7.649c-4.222,0 -7.65,-3.428 -7.65,-7.649c0,-4.222 3.428,-7.65 7.65,-7.65Z" style="fill:#ffd747;"/><path d="M10.727,6.612c-0.736,-1.248 -1.46,-2.278 -1.491,-2.322c-0.077,-0.109 -0.202,-0.174 -0.336,-0.174c-0.134,-0 -0.26,0.065 -0.337,0.174c-0.031,0.044 -0.754,1.074 -1.49,2.322c-1.029,1.746 -1.53,2.963 -1.53,3.721c0,1.847 1.506,3.35 3.357,3.35c1.85,0 3.356,-1.503 3.356,-3.35c-0,-0.758 -0.5,-1.975 -1.529,-3.721Z" style="fill:#0c92b6;fill-rule:nonzero;"/><path d="M8.92,4.117c-0.007,-0 -0.014,-0.001 -0.02,-0.001c-0.134,-0 -0.26,0.065 -0.337,0.174c-0.031,0.044 -0.754,1.074 -1.49,2.322c-1.029,1.746 -1.53,2.963 -1.53,3.721c0,1.847 1.506,3.35 3.357,3.35c0.006,0 0.013,0 0.02,0l-0,-9.566Z" style="fill:#01aedb;fill-rule:nonzero;"/><path d="M7.557,11.926c-0.114,0 -0.227,-0.047 -0.309,-0.139c-0.355,-0.402 -0.551,-0.918 -0.551,-1.454c-0,-0.128 0.043,-0.519 0.442,-1.393c0.094,-0.206 0.338,-0.297 0.545,-0.203c0.207,0.094 0.298,0.338 0.204,0.544c-0.34,0.744 -0.366,1.034 -0.368,1.055c0.001,0.334 0.123,0.656 0.345,0.907c0.151,0.17 0.135,0.43 -0.036,0.58c-0.078,0.069 -0.175,0.103 -0.272,0.103Z" style="fill:#e6e6e6;fill-rule:nonzero;"/></g></svg>