<?xml version="1.0" encoding="UTF-8" standalone="no"?><!DOCTYPE svg PUBLIC "-//W3C//DTD SVG 1.1//EN" "http://www.w3.org/Graphics/SVG/1.1/DTD/svg11.dtd"><svg width="100%" height="100%" viewBox="0 0 16 16" version="1.1" xmlns="http://www.w3.org/2000/svg" xmlns:xlink="http://www.w3.org/1999/xlink" xml:space="preserve" xmlns:serif="http://www.serif.com/" style="fill-rule:evenodd;clip-rule:evenodd;stroke-linejoin:round;stroke-miterlimit:2;"><g><circle cx="7.65" cy="7.65" r="7.65" style="fill:#f9ff87;"/><g><path id="XMLID_1455_" d="M11.392,6.402l-0.887,-3.802l-3.8,0.891c-0.917,0.237 -1.748,0.812 -2.287,1.68c-1.112,1.79 -0.561,4.142 1.229,5.254c1.79,1.111 4.142,0.561 5.253,-1.229c0.539,-0.868 0.686,-1.868 0.492,-2.794Z" style="fill:#95d5a7;fill-rule:nonzero;"/><path id="XMLID_461_" d="M4.898,7.871c-0.357,-1.528 -0.075,-2.993 0.637,-3.857c-0.438,0.293 -0.821,0.681 -1.117,1.157c-1.112,1.79 -0.561,4.142 1.229,5.254c0.415,0.258 0.861,0.426 1.315,0.51c-0.931,-0.52 -1.732,-1.645 -2.064,-3.064Z" style="fill:#80cb93;fill-rule:nonzero;"/><path id="XMLID_462_" d="M9.651,2.8l1.423,6.083c0.395,-0.79 0.489,-1.664 0.318,-2.481l-0.887,-3.802l-0.854,0.2Z" style="fill:#aedeba;fill-rule:nonzero;"/><path id="XMLID_463_" d="M9.445,7.378l-0.147,-0.626l-1.162,0.272l0.834,-1.343l-0.546,-0.339l-0.834,1.343l-0.271,-1.162l-0.626,0.146l0.418,1.788l-0.537,0.865l-0.583,-2.489l-0.625,0.147l0.728,3.114l-1.963,3.163l0.546,0.339l1.963,-3.163l3.115,-0.728l-0.146,-0.626l-2.489,0.582l0.537,-0.865l1.788,-0.418Z" style="fill:#d3edd7;fill-rule:nonzero;"/></g></g></svg>