<?xml version="1.0" encoding="UTF-8" standalone="no"?><!DOCTYPE svg PUBLIC "-//W3C//DTD SVG 1.1//EN" "http://www.w3.org/Graphics/SVG/1.1/DTD/svg11.dtd"><svg width="100%" height="100%" viewBox="0 0 16 16" version="1.1" xmlns="http://www.w3.org/2000/svg" xmlns:xlink="http://www.w3.org/1999/xlink" xml:space="preserve" xmlns:serif="http://www.serif.com/" style="fill-rule:evenodd;clip-rule:evenodd;stroke-linejoin:round;stroke-miterlimit:2;"><g><circle cx="7.65" cy="7.65" r="7.65" style="fill:#fafcdc;"/><circle cx="7.65" cy="7.65" r="7.65" style="fill:#f9ff87;"/><clipPath id="_clip1"><rect x="1.973" y="2.851" width="11.353" height="9.598"/></clipPath><g clip-path="url(#_clip1)"><path d="M4.126,9.47c0,1.645 1.578,2.979 3.524,2.979c1.946,-0 3.523,-1.334 3.523,-2.979c0,-1.655 -0.979,-2.979 -0.322,-4.137c-0,-0 -1.048,0.165 -1.635,1.489c-0,0 -1.958,-1.655 -1.14,-3.971c-0,-0 -1.992,0.662 -1.784,2.813c0.179,1.844 -0.208,2.151 -0.208,2.151c-0,-1.489 -1.378,-2.151 -1.378,-2.151c0.399,1.82 -0.58,2.317 -0.58,3.806Z" style="fill:#ffb446;fill-rule:nonzero;"/><path d="M10.193,10.175c-0,1.239 -1.132,2.297 -2.597,2.273c-1.379,-0.022 -2.405,-0.909 -2.295,-2.068c0.049,-0.517 0.513,-1.355 1.272,-2.203l0.506,0.259c-0.017,-1.048 0.571,-2.441 0.571,-2.441c0.385,1.467 2.543,1.848 2.543,4.18Z" style="fill:#ffdc64;fill-rule:nonzero;"/><path d="M6.671,9.139c-0.196,0.993 -0.587,1.354 -0.587,1.986c-0,0.662 0.701,1.324 1.566,1.324c0.871,-0 1.568,-0.602 1.566,-1.339c-0.007,-1.977 -1.371,-2.964 -1.371,-2.964c0.196,0.993 -0.391,1.489 -0.391,1.489c-0.245,-0.31 -0.783,-0.496 -0.783,-0.496Z" style="fill:#fff;fill-rule:nonzero;"/></g></g></svg>