<?xml version="1.0" encoding="UTF-8" standalone="no"?><!DOCTYPE svg PUBLIC "-//W3C//DTD SVG 1.1//EN" "http://www.w3.org/Graphics/SVG/1.1/DTD/svg11.dtd"><svg width="100%" height="100%" viewBox="0 0 689 907" version="1.1" xmlns="http://www.w3.org/2000/svg" xmlns:xlink="http://www.w3.org/1999/xlink" xml:space="preserve" xmlns:serif="http://www.serif.com/" style="fill-rule:evenodd;clip-rule:evenodd;stroke-linejoin:round;stroke-miterlimit:2;"><g><path d="M178.887,906.908l351.346,0c57.066,-31.391 112.67,-86.429 139.825,-182.754c79.708,-282.791 -125.88,-399.837 -125.88,-399.837c0,-0 23.696,104.866 -69.599,150.171c-0,-0 -202.271,-167.592 -159.938,-474.488c0,0 -102.567,73.213 -194.679,225.9c-97.442,161.517 -149.063,259.65 -102.804,471.6c22.995,105.383 87.07,171.713 161.729,209.408Z" style="fill:#f15a2a;fill-rule:nonzero;"/><path d="M461.77,906.908c31.55,-38.37 46.35,-111.825 -0.129,-251.725c-0,0 -26.158,101.405 -64.317,128.655c0,-0 -92.554,-157.663 -102.495,-310.721c-0,-0 -6.13,-7.475 -69.363,126.621c-46.163,97.904 -35.583,238.704 30.329,307.17l205.975,0Z" style="fill:#fbb041;fill-rule:nonzero;"/></g></svg>