<?xml version="1.0" encoding="UTF-8" standalone="no"?><!DOCTYPE svg PUBLIC "-//W3C//DTD SVG 1.1//EN" "http://www.w3.org/Graphics/SVG/1.1/DTD/svg11.dtd"><svg width="100%" height="100%" viewBox="0 0 182 200" version="1.1" xmlns="http://www.w3.org/2000/svg" xmlns:xlink="http://www.w3.org/1999/xlink" xml:space="preserve" xmlns:serif="http://www.serif.com/" style="fill-rule:evenodd;clip-rule:evenodd;stroke-linejoin:round;stroke-miterlimit:2;"><g><path d="M162.765,43.719c8.893,-27.987 18.694,-43.719 18.694,-43.719c-0,-0 -237.496,23.792 -162.148,162.148c107.375,48.521 123.723,-56.363 143.454,-118.429Z" style="fill:#63b343;fill-rule:nonzero;"/><path d="M170.099,8.184c0,0 -13.058,9.335 -31.587,24.641c-18.549,15.255 -42.517,36.602 -64.289,59.948c-10.893,11.66 -21.16,23.874 -29.981,35.835c-2.222,2.984 -4.362,5.947 -6.335,8.92c-2.051,2.921 -3.947,5.848 -5.719,8.738c-1.849,2.844 -3.501,5.688 -5.05,8.464c-1.622,2.741 -3.036,5.46 -4.341,8.092c-1.362,2.6 -2.574,5.128 -3.595,7.588c-1.072,2.435 -2.15,4.729 -2.906,6.962c-0.803,2.212 -1.549,4.289 -2.253,6.206c-0.56,1.947 -1.078,3.729 -1.544,5.345c-1.057,3.207 -1.305,5.817 -1.751,7.548c-0.367,1.745 -0.554,2.678 -0.554,2.678l-10.194,-1.865c0,-0 0.259,-1.026 0.73,-2.942c0.555,-1.886 0.99,-4.797 2.259,-8.221c0.575,-1.735 1.222,-3.652 1.922,-5.745c0.828,-2.02 1.719,-4.211 2.678,-6.552c0.916,-2.362 2.144,-4.735 3.382,-7.268c1.191,-2.564 2.569,-5.18 4.113,-7.837c1.476,-2.704 3.067,-5.48 4.864,-8.252c1.725,-2.823 3.559,-5.703 5.584,-8.557c1.948,-2.911 4.02,-5.838 6.247,-8.754c2.15,-2.973 4.46,-5.905 6.848,-8.868c9.51,-11.852 20.409,-23.792 31.877,-35.12c22.922,-22.673 47.816,-43.077 67.003,-57.607c19.171,-14.576 32.592,-23.377 32.592,-23.377Z" style="fill:#4b8c3f;fill-rule:nonzero;"/></g></svg>