<?xml version="1.0" encoding="UTF-8" standalone="no"?><!DOCTYPE svg PUBLIC "-//W3C//DTD SVG 1.1//EN" "http://www.w3.org/Graphics/SVG/1.1/DTD/svg11.dtd"><svg width="100%" height="100%" viewBox="0 0 124 200" version="1.1" xmlns="http://www.w3.org/2000/svg" xmlns:xlink="http://www.w3.org/1999/xlink" xml:space="preserve" xmlns:serif="http://www.serif.com/" style="fill-rule:evenodd;clip-rule:evenodd;stroke-linejoin:round;stroke-miterlimit:2;"><g><path d="M61.783,-0c0,-0 -61.772,78.888 -61.783,137.361c-0.008,37.88 27.661,61.788 61.783,61.788c34.126,-0 61.795,-23.908 61.787,-61.788c-0.011,-58.473 -61.787,-137.361 -61.787,-137.361Z" style="fill:#34b1ed;fill-rule:nonzero;"/><path d="M61.885,199.149l-0.196,-0l0.196,-0Zm-0.233,-0l-0.06,-0l0.06,-0Zm-0.098,-0l-0.056,-0l0.056,-0Zm-0.102,-0l-0.052,-0l0.052,-0Zm-0.101,-0.004l-0.042,-0l0.042,-0Zm-0.098,-0l-0.041,-0l0.041,-0Zm-0.094,-0l-0.038,-0l0.038,-0Zm-0.098,-0l-0.03,-0l0.03,-0Zm-0.101,-0l-0.012,-0l0.012,-0Zm62.61,-61.911l0,-0.023l0,0.023Zm0,-0.147l0,-0.023l0,0.023Zm0,-0.147l0,-0.011l0,0.011Zm-0.003,-0.128l-0,-0.034l-0,0.034Zm-0,-0.15l-0,-0.03l-0,0.03Zm-0,-0.139l-0,-0.03l-0,0.03Zm-0.004,-0.136l-0,-0.041l-0,0.041Zm-0,-0.15l-0,-0.045l-0,0.045Zm-0.004,-0.135l0,-0.046l0,0.046Zm0,-0.14c0,-0.015 0,-0.033 -0.004,-0.048c0.004,0.015 0.004,0.033 0.004,0.048Zm-0.004,-0.154l0,-0.049l0,0.049Zm-0.003,-0.12l-0,-0.087l-0,0.087Zm-0,-0.147c-0.004,-0.022 -0.004,-0.041 -0.004,-0.067c-0,0.022 -0,0.048 0.004,0.067Zm-0.004,-0.109c-0,-0.037 -0.004,-0.079 -0.004,-0.12c0,0.041 0.004,0.083 0.004,0.12Zm-0.004,-0.154c0,-0.049 -0.004,-0.094 -0.004,-0.143c0,0.049 0.004,0.094 0.004,0.143Zm-0.004,-0.154c-1.023,-38.726 -27.999,-85.703 -45.954,-112.833c17.947,27.112 44.928,74.092 45.954,112.833Z" style="fill:#f2f2f2;fill-rule:nonzero;"/><path d="M61.885,199.149l-0.485,-0c-0.015,-0 -0.03,-0.004 -0.049,-0.004l-0.403,-0c-0.03,-0.004 -0.056,-0.004 -0.082,-0.004c-15.36,-0.192 -29.358,-5.258 -40.05,-14.254c5.852,1.881 12.08,2.862 18.541,2.862c34.123,0 61.791,-27.311 61.787,-70.591c-0.007,-36.119 -18.059,-79.03 -34.648,-110.855c2.802,3.848 6.671,9.316 11.09,15.988c17.955,27.13 44.931,74.107 45.954,112.833l0,0.011c0,0.049 0.004,0.094 0.004,0.143l0,0.034c0,0.041 0.004,0.083 0.004,0.12l-0,0.042c-0,0.026 -0,0.045 0.004,0.067l-0,0.147c-0,0.022 0.003,0.049 0.003,0.071l0,0.155c0.004,0.015 0.004,0.033 0.004,0.048l0,0.14c0,0.03 0.004,0.06 0.004,0.09l-0,0.195c-0,0.031 0.004,0.072 0.004,0.106l-0,0.319c-0,0.038 0.003,0.079 0.003,0.117l0,0.432c0,0.666 -0.007,1.328 -0.026,1.986c-0.94,36.691 -28.184,59.756 -61.659,59.802Z" style="fill:#31a8e1;fill-rule:nonzero;"/><path d="M32.915,139.08c0,11.858 -5.416,21.467 -12.099,21.467c-6.679,0 -12.098,-9.609 -12.098,-21.467c-0,-11.854 5.419,-21.467 12.098,-21.467c6.683,0 12.099,9.613 12.099,21.467Z" style="fill:#fff;fill-rule:nonzero;"/></g></svg>