<?xml version="1.0" encoding="UTF-8" standalone="no"?><!DOCTYPE svg PUBLIC "-//W3C//DTD SVG 1.1//EN" "http://www.w3.org/Graphics/SVG/1.1/DTD/svg11.dtd"><svg width="100%" height="100%" viewBox="0 0 3209 3209" version="1.1" xmlns="http://www.w3.org/2000/svg" xmlns:xlink="http://www.w3.org/1999/xlink" xml:space="preserve" xmlns:serif="http://www.serif.com/" style="fill-rule:evenodd;clip-rule:evenodd;stroke-linejoin:round;stroke-miterlimit:2;"><g><g id="Colours"><path id="Down" d="M1602.38,2128.15c-253.175,0 -464.358,-179.229 -514.492,-417.358l-842.237,-0c59.533,692.462 640.45,1235.78 1347.95,1235.78c707.504,-0 1289.05,-543.317 1347.95,-1235.78l-824.691,-0c-50.134,238.758 -261.317,417.358 -514.488,417.358Z" style="fill:#fff;fill-rule:nonzero;"/><path id="Center" d="M1912.58,1602.38c-0.625,0 -0.625,0 0,0c-0.625,-38.229 -7.521,-74.575 -20.054,-108.412c-43.867,-117.813 -157.292,-201.163 -290.142,-201.163c-132.854,0 -246.279,83.975 -290.146,201.163c-12.533,33.837 -19.429,70.183 -19.429,108.412l0.629,0c0,38.225 6.892,74.571 19.425,108.413c43.867,117.812 157.292,201.158 290.146,201.158c132.854,0 246.279,-83.975 290.146,-201.158c12.533,-33.213 19.425,-70.188 19.425,-108.413Z" style="fill:#333;fill-rule:nonzero;"/><path id="Up" d="M1603,1077.23c253.171,0 464.359,179.225 514.492,417.359l842.233,-0c-59.533,-693.088 -640.45,-1236.41 -1348.58,-1236.41c-708.129,0 -1288.42,543.321 -1347.95,1235.78l825.313,-0c50.133,-238.134 261.32,-416.734 514.491,-416.734Z" style="fill:#ff1c1c;fill-rule:nonzero;"/></g></g></svg>