<?xml version="1.0" encoding="UTF-8" standalone="no"?><!DOCTYPE svg PUBLIC "-//W3C//DTD SVG 1.1//EN" "http://www.w3.org/Graphics/SVG/1.1/DTD/svg11.dtd"><svg width="100%" height="100%" viewBox="0 0 770 770" version="1.1" xmlns="http://www.w3.org/2000/svg" xmlns:xlink="http://www.w3.org/1999/xlink" xml:space="preserve" xmlns:serif="http://www.serif.com/" style="fill-rule:evenodd;clip-rule:evenodd;stroke-linejoin:round;stroke-miterlimit:2;"><g><g id="Colours"><path id="Down" d="M384.571,510.756c-60.762,-0 -111.446,-43.015 -123.478,-100.166l-202.137,-0c14.288,166.191 153.708,296.587 323.509,296.587c169.801,-0 309.371,-130.396 323.509,-296.587l-197.926,-0c-12.032,57.302 -62.716,100.166 -123.477,100.166Z" style="fill:#fff;fill-rule:nonzero;"/><path id="Center" d="M459.018,384.571c-0.15,-0 -0.15,-0 0,-0c-0.15,-9.175 -1.805,-17.898 -4.813,-26.019c-10.528,-28.275 -37.75,-48.279 -69.634,-48.279c-31.885,0 -59.107,20.154 -69.635,48.279c-3.008,8.121 -4.663,16.844 -4.663,26.019l0.151,-0c-0,9.174 1.654,17.897 4.662,26.019c10.528,28.275 37.75,48.278 69.635,48.278c31.885,-0 59.107,-20.154 69.635,-48.278c3.008,-7.971 4.662,-16.845 4.662,-26.019Z" style="fill:#fff;fill-rule:nonzero;"/><path id="Up" d="M384.721,258.536c60.761,0 111.446,43.014 123.478,100.166l202.136,-0c-14.288,-166.341 -153.708,-296.738 -323.659,-296.738c-169.951,0 -309.22,130.397 -323.508,296.588l198.075,-0c12.032,-57.152 62.717,-100.016 123.478,-100.016Z" style="fill:#ff1c1c;fill-rule:nonzero;"/></g><path id="Line" d="M386.676,61.964c169.951,0 309.371,130.397 323.509,296.588l-202.137,-0c-12.032,-57.152 -62.716,-100.166 -123.477,-100.166c-60.762,-0 -111.446,43.014 -123.478,100.166l-197.925,-0c14.288,-166.191 153.708,-296.588 323.508,-296.588Zm67.529,296.588c3.008,8.121 4.663,16.844 4.663,26.019l0.15,-0c0,9.174 -1.654,17.897 -4.662,26.019c-10.528,28.275 -37.75,48.278 -69.635,48.278c-31.885,-0 -59.107,-20.154 -69.635,-48.278c-3.008,-8.122 -4.662,-16.845 -4.662,-26.019l-0.151,-0c0,-9.175 1.655,-17.898 4.663,-26.019c10.528,-28.275 37.75,-48.279 69.635,-48.279c31.884,0 59.106,20.154 69.634,48.279Zm-71.74,348.775c-169.951,0 -309.371,-130.396 -323.509,-296.587l202.137,0c12.032,57.152 62.716,100.166 123.478,100.166c60.761,-0 111.445,-43.014 123.477,-100.166l198.076,0c-14.288,166.041 -153.708,296.587 -323.659,296.587Zm2.106,-707.327c-212.364,0 -384.571,172.207 -384.571,384.571c0,212.363 172.207,384.57 384.571,384.57c212.363,0 384.721,-172.056 384.721,-384.57c-0,-212.514 -172.207,-384.571 -384.721,-384.571Z" style="fill-rule:nonzero;"/></g></svg>