<?xml version="1.0" encoding="UTF-8" standalone="no"?><!DOCTYPE svg PUBLIC "-//W3C//DTD SVG 1.1//EN" "http://www.w3.org/Graphics/SVG/1.1/DTD/svg11.dtd"><svg width="100%" height="100%" viewBox="0 0 805 805" version="1.1" xmlns="http://www.w3.org/2000/svg" xmlns:xlink="http://www.w3.org/1999/xlink" xml:space="preserve" xmlns:serif="http://www.serif.com/" style="fill-rule:evenodd;clip-rule:evenodd;stroke-linejoin:round;stroke-miterlimit:2;"><g><path d="M402.491,0c222.29,-0 402.491,180.201 402.491,402.491c-0,-0 -0,-0 -0,-0c-0,222.141 -180.35,402.491 -402.491,402.491c-222.141,-0 -402.491,-180.35 -402.491,-402.491c0,-222.29 180.201,-402.491 402.491,-402.491Zm172.713,402.491l194.361,-0l0,-0c0,202.594 -164.48,367.074 -367.074,367.074c-202.594,0 -367.074,-164.48 -367.074,-367.074l194.361,-0l0,-0c0,95.323 77.39,172.713 172.713,172.713c95.323,-0 172.713,-77.39 172.713,-172.713l-0,-0Zm-172.713,-137.296c75.776,-0 137.296,61.52 137.296,137.296c0,75.776 -61.52,137.296 -137.296,137.296c-75.776,0 -137.296,-61.52 -137.296,-137.296c-0,-75.776 61.52,-137.296 137.296,-137.296Zm-0,-35.417c-94.951,0 -172.109,76.788 -172.709,171.597c0.598,-94.439 77.157,-170.998 171.593,-171.593l1.116,-0.004Zm-0,0l1.116,0.004c94.436,0.595 170.995,77.154 171.593,171.593c-0.6,-94.809 -77.758,-171.597 -172.709,-171.597Z" style="fill:#ea3d27;"/><circle cx="402.491" cy="402.491" r="94.009" style="fill:#ea3d27;"/></g></svg>