<?xml version="1.0" encoding="UTF-8" standalone="no"?>
<!DOCTYPE svg PUBLIC "-//W3C//DTD SVG 1.1//EN" "http://www.w3.org/Graphics/SVG/1.1/DTD/svg11.dtd">
<svg width="100%" height="100%" viewBox="0 0 26 10" version="1.1" xmlns="http://www.w3.org/2000/svg" xmlns:xlink="http://www.w3.org/1999/xlink" xml:space="preserve" xmlns:serif="http://www.serif.com/" style="fill-rule:evenodd;clip-rule:evenodd;stroke-linejoin:round;stroke-miterlimit:2;">
    <g transform="matrix(1.33333,0,0,1.33333,-4.18767,-5.10028)">
        <path d="M20.689,5.897L20.546,6.484L20.414,5.833L18.654,5.446L18.667,6.425L18.932,6.484L18.913,6.661L18.905,6.656C18.576,6.483 18.169,6.465 17.786,6.61C17.657,6.657 17.537,6.723 17.429,6.802L17.163,5.126L15.992,5.126L15.961,5.319L14.728,5.319L14.588,6.18L14.485,6.054C14.188,5.691 13.744,5.478 13.275,5.475L14.32,4.912L13.592,3.825L12.272,5.343L12.5,5.621C12.302,5.701 12.121,5.816 11.965,5.961L10.835,4.958L10.441,5.715L10.456,4.988L8.689,5.553L8.735,6.502L9.035,6.424L9.08,6.904C8.736,6.751 8.323,6.753 7.94,6.915C7.828,6.964 7.722,7.025 7.624,7.097C7.694,6.818 7.672,6.524 7.562,6.257C7.43,5.955 7.202,5.704 6.914,5.543C6.708,5.409 6.473,5.325 6.228,5.299C5.617,5.192 4.882,5.301 4.16,5.61C3.904,5.717 3.658,5.845 3.423,5.993L3.141,6.173L4.003,7.629L4.33,7.47L5.645,10.406L5.772,10.688L7.09,10.267L6.629,8.498C6.738,8.418 6.839,8.332 6.933,8.243C6.912,8.417 6.923,8.592 6.97,8.76C7.069,9.112 7.301,9.39 7.62,9.543C7.965,9.709 8.385,9.709 8.775,9.544C8.971,9.462 9.146,9.34 9.292,9.196L9.346,9.774L10.591,9.59L10.59,8.474L13.194,9.759L13.194,8.514C13.571,8.476 13.936,8.358 14.263,8.168L14.154,8.837L15.558,9.058L15.635,8.552L16.001,9.23L16.226,8.798L16.308,9.508L17.899,9.787L17.815,9.252C18.099,9.283 18.386,9.228 18.639,9.095L18.576,9.665L19.636,9.815L19.644,10.249L20.747,10.597L22.186,6.261L20.689,5.897ZM6.236,7.543L6.033,6.877C6.121,6.858 6.213,6.867 6.295,6.903C6.337,6.924 6.411,6.97 6.427,7.059C6.464,7.257 6.398,7.399 6.236,7.541L6.236,7.543ZM12.702,7.107C12.67,7.048 12.653,6.983 12.653,6.916C12.653,6.698 12.832,6.519 13.049,6.519C13.098,6.519 13.147,6.528 13.192,6.546L12.702,7.107Z" style="fill:rgb(53,100,175);"/>
        <path d="M5.75,5.604C5.897,5.605 6.037,5.617 6.168,5.64C6.353,5.662 6.55,5.715 6.724,5.831C6.96,5.964 7.14,6.153 7.245,6.395C7.498,6.981 7.076,7.825 6.237,8.345L6.232,8.348L6.672,10.036L5.959,10.264L4.499,7.001L4.137,7.178L3.609,6.284C3.82,6.15 4.05,6.031 4.295,5.927C4.807,5.71 5.301,5.605 5.737,5.604L5.75,5.604ZM20.114,6.084L20.501,7.916L20.897,6.274L21.77,6.468L20.539,10.192L19.928,10.01L19.875,7.758L19.567,9.496L18.901,9.389L18.95,8.889C19.384,8.521 19.615,7.941 19.489,7.416C19.436,7.189 19.316,6.983 19.144,6.826L19.201,6.236L18.949,6.169L18.965,5.854L20.114,6.084ZM9.621,9.394L9.574,8.837C9.72,8.586 9.8,8.304 9.797,8.025C9.796,7.91 9.78,7.795 9.749,7.683C9.692,7.478 9.583,7.292 9.431,7.143L9.335,6.006L9.036,6.084L9.023,5.796L10.096,5.476L10.161,6.584L10.953,5.473L11.725,6.208L10.645,7.348L11.66,7.75C11.677,7.782 11.695,7.813 11.714,7.843C11.825,8.017 11.978,8.167 12.164,8.282C12.373,8.411 12.614,8.488 12.869,8.513L12.869,9.241L12.867,9.241L10.285,7.949L10.29,9.303L9.621,9.394ZM16.3,5.451L16.896,5.451L17.144,7.059C16.83,7.417 16.676,7.9 16.782,8.341C16.865,8.709 17.121,9.015 17.468,9.162L17.5,9.371L16.62,9.237L16.387,7.686L16.055,8.541L15.559,7.472L15.554,7.472L15.358,8.71L14.532,8.567L14.648,7.876L15.008,7.51L14.747,7.276L15.025,5.631L15.858,5.631L16.066,6.771L16.3,5.451ZM8.556,7.056C8.762,7.057 8.952,7.115 9.108,7.221C9.277,7.337 9.407,7.51 9.467,7.726L9.506,8.048L9.251,8.764C9.1,8.975 8.895,9.141 8.657,9.244C8.495,9.313 8.333,9.346 8.18,9.346L8.176,9.346C7.745,9.346 7.378,9.09 7.257,8.657C7.162,8.323 7.253,7.951 7.466,7.649C7.614,7.439 7.821,7.263 8.066,7.157C8.23,7.089 8.393,7.057 8.548,7.056L8.556,7.056ZM18.322,6.805C18.525,6.805 18.713,6.863 18.864,6.967C18.868,6.97 18.872,6.973 18.875,6.976C19.044,7.097 19.163,7.276 19.21,7.478C19.288,7.8 19.196,8.143 18.993,8.42L18.679,8.731C18.587,8.797 18.486,8.85 18.38,8.89C18.25,8.942 18.111,8.969 17.971,8.969L17.767,8.951C17.639,8.926 17.518,8.875 17.411,8.8C17.239,8.674 17.117,8.489 17.07,8.28C17.007,8.014 17.065,7.728 17.208,7.477C17.28,7.355 17.372,7.241 17.481,7.142C17.602,7.033 17.743,6.943 17.899,6.884C18.04,6.831 18.18,6.806 18.314,6.805L18.322,6.805ZM13.239,5.81C13.645,5.81 13.994,5.979 14.228,6.266L13.153,7.412L13.222,7.415C13.291,7.414 13.36,7.405 13.427,7.386C13.577,7.349 13.689,7.287 13.781,7.212C13.846,7.16 13.901,7.101 13.953,7.04L14.513,7.545C14.457,7.602 14.399,7.656 14.337,7.707C14.09,7.913 13.805,8.046 13.433,8.136L13.194,8.176L13.036,8.184C12.763,8.184 12.515,8.112 12.317,7.986L12.314,7.985C12.135,7.87 11.996,7.711 11.914,7.521L11.86,7.355C11.772,6.984 11.847,6.651 12.03,6.391C12.032,6.388 12.034,6.386 12.035,6.383C12.088,6.31 12.149,6.243 12.217,6.184C12.262,6.145 12.309,6.108 12.357,6.075C12.51,5.972 12.681,5.897 12.861,5.856C12.99,5.825 13.116,5.81 13.236,5.81L13.239,5.81ZM6.236,7.543L6.033,6.877C6.121,6.858 6.213,6.867 6.295,6.903C6.337,6.924 6.411,6.97 6.427,7.059C6.464,7.257 6.398,7.399 6.236,7.541L6.236,7.543ZM12.702,7.107C12.67,7.048 12.653,6.983 12.653,6.916C12.653,6.698 12.832,6.519 13.049,6.519C13.098,6.519 13.147,6.528 13.192,6.546L12.702,7.107ZM13.534,4.308L13.92,4.832L12.817,5.379L12.74,5.263L13.534,4.308Z" style="fill:rgb(255,203,2);"/>
        <path d="M8.969,7.631C8.969,7.803 8.813,7.941 8.622,7.941C8.43,7.941 8.274,7.803 8.274,7.631C8.274,7.471 8.412,7.339 8.587,7.323C8.552,7.317 8.517,7.314 8.482,7.314C8.162,7.314 7.908,7.552 7.908,7.834C7.908,8.137 8.162,8.374 8.477,8.374C8.798,8.374 9.05,8.137 9.05,7.834C9.05,7.732 9.017,7.632 8.956,7.55C8.964,7.574 8.969,7.602 8.969,7.631ZM18.694,7.285C18.701,7.312 18.705,7.34 18.704,7.368C18.696,7.539 18.535,7.672 18.344,7.662C18.153,7.656 18.003,7.511 18.01,7.341C18.016,7.18 18.159,7.053 18.335,7.045C18.301,7.038 18.266,7.033 18.23,7.032C17.909,7.018 17.647,7.246 17.637,7.529C17.623,7.83 17.866,8.078 18.181,8.091C18.503,8.103 18.764,7.876 18.776,7.575C18.78,7.472 18.751,7.371 18.695,7.285L18.694,7.285ZM6.682,7.011C6.618,6.665 6.166,6.475 5.717,6.719L5.833,7.115L6.098,7.965C6.433,7.749 6.772,7.49 6.682,7.011ZM6.236,7.543L6.033,6.877C6.121,6.858 6.213,6.867 6.295,6.903C6.337,6.924 6.411,6.97 6.427,7.059C6.464,7.257 6.398,7.399 6.236,7.541L6.236,7.543ZM13.464,6.462C13.351,6.358 13.202,6.3 13.048,6.3C12.711,6.3 12.434,6.577 12.434,6.914C12.434,7.116 12.533,7.306 12.7,7.42L13.508,6.505L13.464,6.462ZM12.702,7.107C12.67,7.048 12.653,6.983 12.653,6.916C12.653,6.698 12.832,6.519 13.049,6.519C13.098,6.519 13.147,6.528 13.192,6.546L12.702,7.107Z" style="fill:rgb(53,100,175);"/>
    </g>
</svg>
