<?xml version="1.0" encoding="UTF-8" standalone="no"?><!DOCTYPE svg PUBLIC "-//W3C//DTD SVG 1.1//EN" "http://www.w3.org/Graphics/SVG/1.1/DTD/svg11.dtd"><svg width="100%" height="100%" viewBox="0 0 186 186" version="1.1" xmlns="http://www.w3.org/2000/svg" xmlns:xlink="http://www.w3.org/1999/xlink" xml:space="preserve" xmlns:serif="http://www.serif.com/" style="fill-rule:evenodd;clip-rule:evenodd;stroke-linejoin:round;stroke-miterlimit:2;"><g><path d="M92.919,0c51.318,-0 92.919,41.601 92.919,92.919c-0,-0 -0,-0 -0,-0c-0,51.283 -41.636,92.919 -92.919,92.919c-51.283,-0 -92.919,-41.636 -92.919,-92.919c0,-51.318 41.601,-92.919 92.919,-92.919Zm39.872,92.919l44.871,-0l-0,-0c-0,46.771 -37.972,84.743 -84.743,84.743c-46.771,-0 -84.743,-37.972 -84.743,-84.743l44.871,-0l-0,-0c-0,22.006 17.866,39.872 39.872,39.872c22.006,0 39.872,-17.866 39.872,-39.872l0,-0Zm-39.872,-31.696c17.493,-0 31.696,14.202 31.696,31.696c0,17.493 -14.203,31.696 -31.696,31.696c-17.494,0 -31.696,-14.203 -31.696,-31.696c-0,-17.494 14.202,-31.696 31.696,-31.696Zm-0,-8.176c-21.92,-0 -39.733,17.727 -39.872,39.614c0.138,-21.802 17.813,-39.476 39.614,-39.614l0.258,-0Zm-0,-0l0.258,0c21.801,0.138 39.475,17.812 39.613,39.614c-0.138,-21.887 -17.951,-39.614 -39.871,-39.614Z" style="fill:#ee5151;"/><circle cx="92.919" cy="92.919" r="21.703" style="fill:#ee5151;"/></g></svg>