<?xml version="1.0" encoding="UTF-8" standalone="no"?><!DOCTYPE svg PUBLIC "-//W3C//DTD SVG 1.1//EN" "http://www.w3.org/Graphics/SVG/1.1/DTD/svg11.dtd"><svg width="100%" height="100%" viewBox="0 0 770 770" version="1.1" xmlns="http://www.w3.org/2000/svg" xmlns:xlink="http://www.w3.org/1999/xlink" xml:space="preserve" xmlns:serif="http://www.serif.com/" style="fill-rule:evenodd;clip-rule:evenodd;stroke-linejoin:round;stroke-miterlimit:2;"><g><g id="Colours"><path id="Down" d="M321.531,493.902c-52.621,-30.38 -75.008,-92.974 -56.852,-148.485l-175.056,-101.068c-70.722,151.07 -15.178,333.706 131.873,418.606c147.052,84.901 333.122,41.76 428.461,-95.097l-171.409,-98.963c-39.071,43.609 -104.397,55.388 -157.017,25.007Z" style="fill:#fff;fill-rule:nonzero;"/><path id="Center" d="M449.096,421.847c-0.13,-0.075 -0.13,-0.075 0,-0c4.457,-8.021 7.386,-16.402 8.842,-24.94c5.02,-29.751 -8.554,-60.685 -36.166,-76.627c-27.613,-15.943 -61.265,-12.1 -84.445,6.992c-6.666,5.53 -12.46,12.257 -17.047,20.202l0.13,0.076c-4.587,7.945 -7.516,16.326 -8.972,24.864c-5.02,29.751 8.554,60.685 36.167,76.627c27.613,15.943 61.264,12.1 84.444,-6.992c6.591,-5.4 12.46,-12.257 17.047,-20.202Z" style="fill:#ff1c1c;fill-rule:nonzero;"/><path id="Up" d="M447.77,275.549c52.621,30.381 75.008,92.974 56.852,148.485l175.056,101.068c70.797,-151.2 15.253,-333.836 -131.928,-418.811c-147.182,-84.976 -332.991,-41.684 -428.461,95.097l171.539,99.038c38.996,-43.479 104.322,-55.258 156.942,-24.877Z" style="fill:#d9baba;fill-rule:nonzero;"/></g><path id="Line" d="M547.75,106.291c147.181,84.975 202.725,267.611 131.873,418.606l-175.056,-101.068c18.156,-55.511 -4.231,-118.105 -56.852,-148.485c-52.62,-30.381 -118.022,-18.472 -157.017,25.007l-171.409,-98.963c95.47,-136.781 281.409,-179.998 428.461,-95.097Zm-89.812,290.616c-1.456,8.538 -4.385,16.919 -8.972,24.865l0.13,0.075c-4.587,7.945 -10.381,14.672 -17.047,20.202c-23.255,19.223 -56.831,22.935 -84.444,6.992c-27.613,-15.942 -41.112,-47.006 -36.167,-76.627c1.456,-8.538 4.385,-16.919 8.972,-24.864l-0.13,-0.076c4.587,-7.945 10.381,-14.672 17.047,-20.202c23.255,-19.223 56.832,-22.935 84.445,-6.992c27.612,15.942 41.111,47.007 36.166,76.627Zm-236.517,266.179c-147.182,-84.976 -202.725,-267.612 -131.873,-418.607l175.055,101.069c-18.155,55.51 4.232,118.104 56.852,148.485c52.621,30.38 118.022,18.471 157.018,-25.008l171.539,99.038c-95.394,136.652 -281.409,179.998 -428.591,95.023Zm355.487,-611.511c-183.912,-106.182 -419.151,-43.15 -525.333,140.763c-106.182,183.912 -43.15,419.151 140.763,525.333c183.912,106.182 419.206,43.355 525.463,-140.688c106.257,-184.042 43.15,-419.151 -140.893,-525.408Z" style="fill-rule:nonzero;"/></g></svg>